<svg xmlns="http://www.w3.org/2000/svg" viewBox="0 0 420 300" role="img" aria-labelledby="title desc">
  <title id="title">神明也要流量小庙</title>
  <desc id="desc">一座带手机热搜光芒的东方小庙</desc>
  <defs>
    <linearGradient id="sky" x1="0" x2="1" y1="0" y2="1">
      <stop offset="0" stop-color="#f4bf62"/>
      <stop offset="1" stop-color="#b83228"/>
    </linearGradient>
    <linearGradient id="roof" x1="0" x2="1">
      <stop offset="0" stop-color="#7f211d"/>
      <stop offset="1" stop-color="#d74732"/>
    </linearGradient>
    <filter id="glow" x="-30%" y="-30%" width="160%" height="160%">
      <feGaussianBlur stdDeviation="5" result="blur"/>
      <feMerge>
        <feMergeNode in="blur"/>
        <feMergeNode in="SourceGraphic"/>
      </feMerge>
    </filter>
  </defs>
  <rect width="420" height="300" rx="22" fill="#171514"/>
  <circle cx="309" cy="77" r="48" fill="url(#sky)" opacity=".86"/>
  <path d="M37 248c50-34 95-45 134-32 31 10 52 6 80-15 40-29 91-21 133 47H37z" fill="#24312b"/>
  <path d="M82 143h256l-30 26H112z" fill="#5d1916"/>
  <path d="M58 133c55-41 106-64 153-69 56 4 107 27 153 69l-20 20H79z" fill="url(#roof)"/>
  <path d="M91 116c44-27 84-42 120-45 43 3 83 18 120 45" fill="none" stroke="#f0c46b" stroke-width="10" stroke-linecap="round"/>
  <rect x="106" y="162" width="208" height="88" rx="8" fill="#38251d"/>
  <rect x="133" y="176" width="52" height="74" fill="#8b2f25"/>
  <rect x="235" y="176" width="52" height="74" fill="#8b2f25"/>
  <rect x="190" y="173" width="40" height="77" fill="#1e1917"/>
  <path d="M210 184c-14 16-19 31-15 44 5 14 25 14 30 0 4-13-1-28-15-44z" fill="#f3b84f" filter="url(#glow)"/>
  <path d="M96 159h228" stroke="#f0c46b" stroke-width="8" stroke-linecap="round"/>
  <path d="M89 249h242" stroke="#f0c46b" stroke-width="7" stroke-linecap="round"/>
  <g transform="translate(275 24)">
    <rect x="0" y="0" width="74" height="106" rx="16" fill="#111" stroke="#f4efe0" stroke-opacity=".42" stroke-width="4"/>
    <rect x="10" y="13" width="54" height="72" rx="8" fill="#45a786"/>
    <path d="M20 31h34M20 47h25M20 63h30" stroke="#f7efe1" stroke-width="5" stroke-linecap="round"/>
    <circle cx="37" cy="94" r="4" fill="#f7efe1"/>
  </g>
  <g fill="#f7efe1" opacity=".92">
    <text x="52" y="63" font-family="serif" font-size="34" font-weight="800">香</text>
    <text x="79" y="88" font-family="serif" font-size="25" font-weight="800">火</text>
    <text x="335" y="221" font-family="serif" font-size="29" font-weight="800">灵</text>
  </g>
  <g stroke="#f4bf62" stroke-width="4" stroke-linecap="round">
    <path d="M48 205v34"/>
    <path d="M62 194v45"/>
    <path d="M357 190v49"/>
    <path d="M373 205v34"/>
  </g>
</svg>
